<?xml version="1.0" encoding="UTF-8" standalone="no"?>
<svg
   id="svg2"
   version="1.1"
   width="600"
   height="300"
   xmlns="http://www.w3.org/2000/svg"
   xmlns:svg="http://www.w3.org/2000/svg"
   xmlns:rdf="http://www.w3.org/1999/02/22-rdf-syntax-ns#"
   xmlns:cc="http://creativecommons.org/ns#"
   xmlns:dc="http://purl.org/dc/elements/1.1/">
  <script
     id="dashlane_webauthn"
     name="forward_webauthn_ready" />
  <script
     id="dashlane_webauthn_vendors" />
  <metadata
     id="metadata8">
    <rdf:RDF>
      <cc:Work
         rdf:about="">
        <dc:format>image/svg+xml</dc:format>
        <dc:type
           rdf:resource="http://purl.org/dc/dcmitype/StillImage" />
      </cc:Work>
    </rdf:RDF>
  </metadata>
  <defs
     id="defs6" />
  <g
     id="g3614"
     transform="matrix(3,0,0,3,15,-150)">
    <path
       id="path2820"
       d="m 62.511677,127.84048 c 0,-0.83977 4.041963,-4.29526 8.982141,-7.67885 10.621365,-7.27471 18.291956,-15.2339 22.753427,-23.609504 10.231245,-19.207279 6.990215,-39.234197 -6.645392,-41.063116 -7.541825,-1.01157 -17.090176,4.491435 -17.090176,9.84959 0,1.98778 0.508501,2.147884 6.037438,1.900912 6.764925,-0.302182 11.341654,6.282702 7.680759,11.050886 -5.784567,7.53419 -19.718197,3.205925 -19.718197,-6.12515 0,-8.178104 4.976735,-14.686661 13.736031,-17.963933 18.744999,-7.013402 36.588252,5.915889 35.025872,25.379878 -1.28058,15.953347 -15.170703,30.852697 -42.135847,45.197347 -6.39814,3.40362 -8.626056,4.19445 -8.626056,3.06194 z"
       style="fill:#000000" />
    <path
       transform="matrix(0.8552381,0,0,0.8552381,13.155357,9.9952378)"
       style="fill:#000000;fill-opacity:1;stroke:none"
       id="path3598"
       d="m 135,65.625 c 0,3.796958 -2.93813,6.875 -6.5625,6.875 -3.62437,0 -6.5625,-3.078042 -6.5625,-6.875 0,-3.796958 2.93813,-6.875 6.5625,-6.875 3.62437,0 6.5625,3.078042 6.5625,6.875 z" />
    <path
       d="m 135,65.625 c 0,3.796958 -2.93813,6.875 -6.5625,6.875 -3.62437,0 -6.5625,-3.078042 -6.5625,-6.875 0,-3.796958 2.93813,-6.875 6.5625,-6.875 3.62437,0 6.5625,3.078042 6.5625,6.875 z"
       id="path3600"
       style="fill:#000000;fill-opacity:1;stroke:none"
       transform="matrix(0.8552381,0,0,0.8552381,13.542857,29.875)" />
  </g>
</svg>
